<svg xmlns="http://www.w3.org/2000/svg" width="174.158" height="47.375" viewBox="0 0 174.158 47.375">
  <g id="Raggruppa_1082" data-name="Raggruppa 1082" transform="translate(-250.329 -48.591)">
    <path id="Tracciato_766" data-name="Tracciato 766" d="M286.271,76.92,270.639,49.845a2.506,2.506,0,0,0-4.341,0L250.664,76.922a2.51,2.51,0,0,0,1.175,3.553l12.49,5.407-8.809,3.81,2.5-4.36-3.039-1.312-3.5,6.084a2.506,2.506,0,0,0,3.167,3.554l12.175-5.266v5.929a1.646,1.646,0,0,0,3.291,0V88.392l12.169,5.269a2.507,2.507,0,0,0,3.169-3.553l-4.523-7.831,4.164-1.8a2.507,2.507,0,0,0,1.3-3.3,2.45,2.45,0,0,0-.129-.256Zm-4.856,12.772-8.807-3.81,5.285-2.29Zm-12.947-5.6L260.7,80.728l7.768-13.455,6.649,11.576,3.041-1.315-7.519-13.087a2.508,2.508,0,0,0-4.342,0l-8.638,14.961-3.7-1.6,14.509-25.141L282.981,77.8Z" fill="#46f72f"/>
    <g id="Raggruppa_981" data-name="Raggruppa 981">
      <g id="Raggruppa_980" data-name="Raggruppa 980">
        <path id="Tracciato_767" data-name="Tracciato 767" d="M314.828,60.038h5.278L308.983,75.1v8.985h-4.409V75.1L293.45,60.038h5.24l8.084,10.222Z" fill="#fff"/>
        <path id="Tracciato_768" data-name="Tracciato 768" d="M343.221,79.446V60.038h4.443V79.446a4.449,4.449,0,0,1-1.369,3.29,4.5,4.5,0,0,1-3.274,1.352H328.256a4.62,4.62,0,0,1-4.643-4.6V60.038h4.409V79.446a.207.207,0,0,0,.176.234.188.188,0,0,0,.058,0H343.02Q343.221,79.68,343.221,79.446Z" fill="#fff"/>
        <path id="Tracciato_769" data-name="Tracciato 769" d="M353.342,60.071h19.375a4.674,4.674,0,0,1,4.676,4.643v6.48a4.675,4.675,0,0,1-4.676,4.643l-14.865.033-.1-.033v8.25h-4.409ZM372.95,71.194v-6.48a.207.207,0,0,0-.175-.234.194.194,0,0,0-.059,0H357.985a.207.207,0,0,0-.234.176.279.279,0,0,0,0,.058v6.48a.207.207,0,0,0,.176.234.188.188,0,0,0,.058,0h14.732a.207.207,0,0,0,.233-.177.176.176,0,0,0,0-.056Z" fill="#fff"/>
        <path id="Tracciato_770" data-name="Tracciato 770" d="M381.8,84.089V60.038h4.409V84.089Z" fill="#fff"/>
        <path id="Tracciato_771" data-name="Tracciato 771" d="M391.153,84.089V60.038h4.409V84.089Z" fill="#fff"/>
        <path id="Tracciato_772" data-name="Tracciato 772" d="M418.845,60.038h5.642L414.423,72.063l10.064,12.025h-5.642l-8.217-9.82h-5.679v9.82H400.5V60.038h4.443v9.821h5.679Z" fill="#fff"/>
      </g>
    </g>
  </g>
</svg>