<svg xmlns="http://www.w3.org/2000/svg" xmlns:xlink="http://www.w3.org/1999/xlink" width="500" zoomAndPan="magnify" viewBox="0 0 375 374.999991" height="500" preserveAspectRatio="xMidYMid meet" version="1.0"><rect x="-37.5" width="450" fill="#ffffff" y="-37.499999" height="449.999989" fill-opacity="1"/><rect x="-37.5" width="450" fill="#ffffff" y="-37.499999" height="449.999989" fill-opacity="1"/><rect x="-37.5" width="450" fill="#ffffff" y="-37.499999" height="449.999989" fill-opacity="1"/><path fill="#2d4356" d="M 128.253906 60.8125 L 115.976562 54.117188 C 115.3125 53.753906 114.597656 53.570312 113.839844 53.570312 C 113.082031 53.570312 112.367188 53.753906 111.699219 54.117188 L 99.425781 60.8125 C 98.707031 61.203125 98.140625 61.75 97.722656 62.453125 C 97.304688 63.15625 97.097656 63.914062 97.097656 64.730469 L 97.097656 78.125 C 97.097656 78.941406 97.304688 79.703125 97.722656 80.402344 C 98.140625 81.105469 98.707031 81.652344 99.425781 82.042969 L 111.699219 88.742188 C 112.367188 89.105469 113.082031 89.285156 113.839844 89.285156 C 114.597656 89.285156 115.3125 89.105469 115.976562 88.742188 L 128.253906 82.042969 C 128.972656 81.652344 129.539062 81.105469 129.957031 80.402344 C 130.371094 79.703125 130.582031 78.941406 130.582031 78.125 L 130.582031 64.730469 C 130.582031 63.914062 130.371094 63.15625 129.957031 62.453125 C 129.539062 61.75 128.972656 61.203125 128.253906 60.8125 Z M 121.652344 75.472656 L 113.839844 79.738281 L 106.027344 75.472656 L 106.027344 67.382812 L 113.839844 63.121094 L 121.652344 67.382812 Z M 121.652344 75.472656 " fill-opacity="1" fill-rule="nonzero"/><path fill="#004aad" d="M 61.476562 108.832031 L 73.753906 115.527344 C 74.421875 115.890625 75.132812 116.070312 75.894531 116.070312 C 76.652344 116.070312 77.363281 115.890625 78.03125 115.527344 L 90.308594 108.832031 C 91.023438 108.4375 91.59375 107.890625 92.007812 107.191406 C 92.425781 106.488281 92.632812 105.726562 92.632812 104.910156 L 92.632812 91.519531 C 92.632812 90.699219 92.425781 89.941406 92.007812 89.238281 C 91.59375 88.535156 91.023438 87.988281 90.308594 87.597656 L 78.03125 80.902344 C 77.363281 80.539062 76.652344 80.355469 75.894531 80.355469 C 75.132812 80.355469 74.421875 80.539062 73.753906 80.902344 L 61.476562 87.597656 C 60.761719 87.988281 60.195312 88.535156 59.777344 89.238281 C 59.359375 89.941406 59.152344 90.699219 59.152344 91.519531 L 59.152344 104.910156 C 59.152344 105.726562 59.359375 106.488281 59.777344 107.191406 C 60.195312 107.890625 60.761719 108.4375 61.476562 108.832031 Z M 68.082031 94.167969 L 75.894531 89.90625 L 83.707031 94.167969 L 83.707031 102.257812 L 75.894531 106.523438 L 68.082031 102.257812 Z M 68.082031 94.167969 " fill-opacity="1" fill-rule="nonzero"/><path fill="#2d4356" d="M 246.746094 82.042969 L 259.023438 88.742188 C 259.6875 89.105469 260.402344 89.285156 261.160156 89.285156 C 261.917969 89.285156 262.632812 89.105469 263.300781 88.742188 L 275.574219 82.042969 C 276.292969 81.652344 276.859375 81.105469 277.277344 80.402344 C 277.695312 79.703125 277.902344 78.941406 277.902344 78.125 L 277.902344 64.730469 C 277.902344 63.914062 277.695312 63.15625 277.277344 62.453125 C 276.859375 61.75 276.292969 61.203125 275.574219 60.8125 L 263.300781 54.117188 C 262.632812 53.753906 261.917969 53.570312 261.160156 53.570312 C 260.402344 53.570312 259.6875 53.753906 259.023438 54.117188 L 246.746094 60.8125 C 246.027344 61.203125 245.460938 61.75 245.042969 62.453125 C 244.628906 63.15625 244.417969 63.914062 244.417969 64.730469 L 244.417969 78.125 C 244.417969 78.941406 244.628906 79.703125 245.042969 80.402344 C 245.460938 81.105469 246.027344 81.652344 246.746094 82.042969 Z M 253.347656 67.382812 L 261.160156 63.121094 L 268.972656 67.382812 L 268.972656 75.472656 L 261.160156 79.738281 L 253.347656 75.472656 Z M 253.347656 67.382812 " fill-opacity="1" fill-rule="nonzero"/><path fill="#004aad" d="M 313.523438 87.597656 L 301.246094 80.902344 C 300.578125 80.539062 299.867188 80.355469 299.105469 80.355469 C 298.347656 80.355469 297.636719 80.539062 296.96875 80.902344 L 284.691406 87.597656 C 283.976562 87.988281 283.40625 88.535156 282.992188 89.238281 C 282.574219 89.941406 282.367188 90.699219 282.367188 91.519531 L 282.367188 104.910156 C 282.367188 105.726562 282.574219 106.488281 282.992188 107.191406 C 283.40625 107.890625 283.976562 108.4375 284.691406 108.832031 L 296.96875 115.527344 C 297.636719 115.890625 298.347656 116.070312 299.105469 116.070312 C 299.867188 116.070312 300.578125 115.890625 301.246094 115.527344 L 313.523438 108.832031 C 314.238281 108.4375 314.804688 107.890625 315.222656 107.191406 C 315.640625 106.488281 315.847656 105.726562 315.847656 104.910156 L 315.847656 91.519531 C 315.847656 90.699219 315.640625 89.941406 315.222656 89.238281 C 314.804688 88.535156 314.238281 87.988281 313.523438 87.597656 Z M 306.917969 102.257812 L 299.105469 106.523438 L 291.292969 102.257812 L 291.292969 94.167969 L 299.105469 89.90625 L 306.917969 94.167969 Z M 173.085938 90.972656 L 185.363281 97.667969 C 186.027344 98.03125 186.742188 98.214844 187.5 98.214844 C 188.257812 98.214844 188.972656 98.03125 189.636719 97.667969 L 201.914062 90.972656 C 202.632812 90.582031 203.199219 90.035156 203.617188 89.332031 C 204.03125 88.628906 204.242188 87.871094 204.242188 87.054688 L 204.242188 73.660156 C 204.242188 72.84375 204.03125 72.085938 203.617188 71.382812 C 203.199219 70.679688 202.632812 70.132812 201.914062 69.742188 L 189.636719 63.042969 C 188.972656 62.679688 188.257812 62.5 187.5 62.5 C 186.742188 62.5 186.027344 62.679688 185.363281 63.042969 L 173.085938 69.742188 C 172.367188 70.132812 171.800781 70.679688 171.382812 71.382812 C 170.96875 72.085938 170.757812 72.84375 170.757812 73.660156 L 170.757812 87.054688 C 170.757812 87.871094 170.96875 88.628906 171.382812 89.332031 C 171.800781 90.035156 172.367188 90.582031 173.085938 90.972656 Z M 179.6875 76.308594 L 187.5 72.050781 L 195.3125 76.3125 L 195.3125 84.402344 L 187.5 88.664062 L 179.6875 84.402344 Z M 90.308594 284.027344 L 78.03125 277.332031 C 77.363281 276.964844 76.652344 276.785156 75.894531 276.785156 C 75.132812 276.785156 74.421875 276.964844 73.753906 277.332031 L 61.476562 284.027344 C 60.761719 284.417969 60.195312 284.964844 59.777344 285.667969 C 59.359375 286.371094 59.152344 287.128906 59.152344 287.945312 L 59.152344 301.339844 C 59.152344 302.15625 59.359375 302.914062 59.777344 303.617188 C 60.195312 304.320312 60.761719 304.867188 61.476562 305.257812 L 73.753906 311.957031 C 74.421875 312.320312 75.132812 312.5 75.894531 312.5 C 76.652344 312.5 77.363281 312.320312 78.03125 311.957031 L 90.308594 305.257812 C 91.023438 304.867188 91.59375 304.320312 92.007812 303.617188 C 92.425781 302.914062 92.632812 302.15625 92.632812 301.339844 L 92.632812 287.945312 C 92.632812 287.128906 92.425781 286.371094 92.007812 285.667969 C 91.59375 284.964844 91.023438 284.417969 90.308594 284.027344 Z M 83.707031 298.6875 L 75.894531 302.949219 L 68.082031 298.6875 L 68.082031 290.597656 L 75.894531 286.335938 L 83.707031 290.597656 Z M 313.523438 284.027344 L 301.246094 277.332031 C 300.578125 276.964844 299.867188 276.785156 299.105469 276.785156 C 298.347656 276.785156 297.636719 276.964844 296.96875 277.332031 L 284.691406 284.027344 C 283.976562 284.417969 283.40625 284.964844 282.992188 285.667969 C 282.574219 286.371094 282.367188 287.128906 282.367188 287.945312 L 282.367188 301.339844 C 282.367188 302.15625 282.574219 302.914062 282.992188 303.617188 C 283.40625 304.320312 283.976562 304.867188 284.691406 305.257812 L 296.96875 311.957031 C 297.636719 312.320312 298.347656 312.5 299.105469 312.5 C 299.867188 312.5 300.578125 312.320312 301.246094 311.957031 L 313.523438 305.257812 C 314.238281 304.867188 314.804688 304.320312 315.222656 303.617188 C 315.640625 302.914062 315.847656 302.15625 315.847656 301.339844 L 315.847656 287.945312 C 315.847656 287.128906 315.640625 286.371094 315.222656 285.667969 C 314.804688 284.964844 314.238281 284.417969 313.523438 284.027344 Z M 306.917969 298.6875 L 299.105469 302.949219 L 291.292969 298.6875 L 291.292969 290.597656 L 299.105469 286.335938 L 306.917969 290.597656 Z M 201.914062 301.882812 L 189.636719 295.1875 C 188.972656 294.824219 188.257812 294.640625 187.5 294.640625 C 186.742188 294.640625 186.027344 294.824219 185.363281 295.1875 L 173.085938 301.882812 C 172.367188 302.273438 171.800781 302.820312 171.382812 303.523438 C 170.96875 304.226562 170.757812 304.988281 170.757812 305.804688 L 170.757812 319.195312 C 170.757812 320.011719 170.96875 320.773438 171.382812 321.476562 C 171.800781 322.179688 172.367188 322.726562 173.085938 323.117188 L 185.363281 329.8125 C 186.027344 330.175781 186.742188 330.355469 187.5 330.355469 C 188.257812 330.355469 188.972656 330.175781 189.636719 329.8125 L 201.914062 323.117188 C 202.632812 322.726562 203.199219 322.179688 203.617188 321.476562 C 204.03125 320.773438 204.242188 320.011719 204.242188 319.195312 L 204.242188 305.804688 C 204.242188 304.988281 204.03125 304.226562 203.617188 303.523438 C 203.199219 302.820312 202.632812 302.273438 201.914062 301.882812 Z M 195.3125 316.542969 L 187.5 320.808594 L 179.6875 316.542969 L 179.6875 308.453125 L 187.5 304.191406 L 195.3125 308.457031 Z M 195.3125 316.542969 " fill-opacity="1" fill-rule="nonzero"/><path fill="#2d4356" d="M 183.035156 106.355469 L 183.035156 130.25 C 184.480469 129.738281 185.96875 129.484375 187.5 129.484375 C 189.03125 129.484375 190.519531 129.738281 191.964844 130.25 L 191.964844 106.355469 C 190.523438 106.878906 189.035156 107.140625 187.5 107.140625 C 185.964844 107.140625 184.476562 106.878906 183.035156 106.355469 Z M 256.695312 174.105469 C 257.28125 174.105469 257.863281 174.050781 258.4375 173.933594 C 259.011719 173.820312 259.570312 173.648438 260.113281 173.425781 C 260.652344 173.199219 261.167969 172.925781 261.65625 172.601562 C 262.140625 172.273438 262.59375 171.902344 263.007812 171.488281 C 263.421875 171.074219 263.792969 170.625 264.117188 170.136719 C 264.441406 169.648438 264.71875 169.136719 264.941406 168.59375 C 265.167969 168.050781 265.335938 167.496094 265.453125 166.917969 C 265.566406 166.34375 265.625 165.765625 265.625 165.179688 L 265.625 97.425781 C 264.183594 97.949219 262.695312 98.214844 261.160156 98.214844 C 259.625 98.214844 258.136719 97.949219 256.695312 97.425781 L 256.695312 165.179688 L 249.203125 165.179688 C 249.726562 166.621094 249.992188 168.109375 250 169.644531 L 250 174.105469 Z M 238.746094 165.722656 L 189.636719 138.9375 C 188.972656 138.574219 188.257812 138.394531 187.5 138.394531 C 186.742188 138.394531 186.027344 138.574219 185.363281 138.9375 L 136.253906 165.722656 C 135.539062 166.113281 134.96875 166.660156 134.554688 167.363281 C 134.136719 168.066406 133.929688 168.824219 133.929688 169.644531 L 133.929688 223.214844 C 133.929688 224.03125 134.136719 224.789062 134.554688 225.492188 C 134.96875 226.195312 135.539062 226.742188 136.253906 227.132812 L 185.363281 253.917969 C 186.027344 254.28125 186.742188 254.464844 187.5 254.464844 C 188.257812 254.464844 188.972656 254.28125 189.636719 253.917969 L 238.746094 227.132812 C 239.460938 226.742188 240.03125 226.195312 240.445312 225.492188 C 240.863281 224.789062 241.070312 224.03125 241.070312 223.214844 L 241.070312 169.644531 C 241.070312 168.824219 240.863281 168.066406 240.445312 167.363281 C 240.03125 166.660156 239.460938 166.113281 238.746094 165.722656 Z M 232.144531 220.5625 L 187.5 244.914062 L 142.855469 220.5625 L 142.855469 172.292969 L 187.5 147.941406 L 232.144531 172.292969 Z M 232.144531 220.5625 " fill-opacity="1" fill-rule="nonzero"/><path fill="#004aad" d="M 176.402344 163.507812 L 156.3125 174.667969 C 155.605469 175.0625 155.042969 175.609375 154.632812 176.308594 C 154.222656 177.003906 154.015625 177.761719 154.019531 178.570312 L 154.019531 198.660156 C 154.019531 198.953125 154.046875 199.242188 154.105469 199.53125 C 154.160156 199.820312 154.246094 200.097656 154.359375 200.367188 C 154.46875 200.640625 154.605469 200.898438 154.769531 201.140625 C 154.933594 201.382812 155.117188 201.609375 155.324219 201.816406 C 155.53125 202.023438 155.757812 202.210938 156 202.371094 C 156.246094 202.535156 156.503906 202.671875 156.773438 202.785156 C 157.042969 202.898438 157.324219 202.980469 157.609375 203.039062 C 157.898438 203.097656 158.1875 203.125 158.480469 203.125 C 158.773438 203.125 159.066406 203.097656 159.351562 203.039062 C 159.640625 202.980469 159.917969 202.898438 160.191406 202.785156 C 160.460938 202.671875 160.71875 202.535156 160.960938 202.371094 C 161.207031 202.210938 161.429688 202.023438 161.640625 201.816406 C 161.847656 201.609375 162.03125 201.382812 162.195312 201.140625 C 162.355469 200.898438 162.496094 200.640625 162.605469 200.367188 C 162.71875 200.097656 162.804688 199.820312 162.859375 199.53125 C 162.917969 199.242188 162.945312 198.953125 162.945312 198.660156 L 162.945312 181.199219 L 180.742188 171.3125 C 180.996094 171.167969 181.238281 171.003906 181.460938 170.8125 C 181.683594 170.625 181.886719 170.414062 182.066406 170.183594 C 182.25 169.953125 182.40625 169.710938 182.542969 169.449219 C 182.675781 169.1875 182.78125 168.917969 182.863281 168.636719 C 182.941406 168.351562 182.996094 168.066406 183.019531 167.773438 C 183.042969 167.480469 183.039062 167.191406 183.003906 166.898438 C 182.96875 166.609375 182.910156 166.324219 182.820312 166.042969 C 182.730469 165.765625 182.613281 165.496094 182.472656 165.242188 C 182.328125 164.984375 182.164062 164.746094 181.972656 164.523438 C 181.785156 164.300781 181.574219 164.097656 181.34375 163.914062 C 181.113281 163.730469 180.871094 163.574219 180.609375 163.441406 C 180.347656 163.304688 180.078125 163.199219 179.796875 163.117188 C 179.511719 163.039062 179.226562 162.984375 178.933594 162.960938 C 178.644531 162.9375 178.351562 162.941406 178.058594 162.976562 C 177.769531 163.007812 177.484375 163.070312 177.203125 163.160156 C 176.925781 163.25 176.65625 163.363281 176.402344 163.507812 Z M 176.402344 163.507812 " fill-opacity="1" fill-rule="nonzero"/><path fill="#2d4356" d="M 113.839844 98.214844 C 112.304688 98.207031 110.816406 97.945312 109.375 97.425781 L 109.375 165.179688 C 109.375 165.765625 109.433594 166.34375 109.546875 166.917969 C 109.664062 167.496094 109.832031 168.050781 110.058594 168.59375 C 110.28125 169.136719 110.558594 169.648438 110.882812 170.136719 C 111.207031 170.625 111.578125 171.074219 111.992188 171.488281 C 112.40625 171.902344 112.859375 172.273438 113.34375 172.601562 C 113.832031 172.925781 114.347656 173.199219 114.886719 173.425781 C 115.429688 173.648438 115.988281 173.820312 116.5625 173.933594 C 117.136719 174.050781 117.71875 174.105469 118.304688 174.105469 L 125 174.105469 L 125 169.644531 C 125.007812 168.109375 125.273438 166.621094 125.796875 165.179688 L 118.304688 165.179688 L 118.304688 97.425781 C 116.859375 97.945312 115.371094 98.207031 113.839844 98.214844 Z M 113.839844 98.214844 " fill-opacity="1" fill-rule="nonzero"/><path fill="#2d4356" d="M 80.355469 178.570312 L 80.355469 124.210938 C 78.914062 124.738281 77.425781 125 75.894531 125 C 74.359375 125 72.871094 124.738281 71.429688 124.210938 L 71.429688 178.570312 C 71.429688 179.449219 71.515625 180.320312 71.6875 181.183594 C 71.859375 182.046875 72.117188 182.882812 72.453125 183.695312 C 72.789062 184.507812 73.203125 185.277344 73.691406 186.007812 C 74.179688 186.738281 74.734375 187.414062 75.355469 188.035156 C 75.976562 188.660156 76.652344 189.214844 77.382812 189.703125 C 78.113281 190.191406 78.886719 190.605469 79.699219 190.941406 C 80.511719 191.277344 81.347656 191.53125 82.210938 191.703125 C 83.070312 191.875 83.941406 191.964844 84.820312 191.964844 L 125 191.964844 L 125 183.035156 L 84.820312 183.035156 C 84.527344 183.035156 84.238281 183.007812 83.949219 182.949219 C 83.664062 182.890625 83.382812 182.808594 83.113281 182.695312 C 82.84375 182.582031 82.585938 182.445312 82.34375 182.28125 C 82.097656 182.117188 81.875 181.933594 81.664062 181.726562 C 81.457031 181.519531 81.273438 181.292969 81.109375 181.050781 C 80.949219 180.808594 80.808594 180.550781 80.699219 180.277344 C 80.585938 180.007812 80.5 179.730469 80.445312 179.441406 C 80.386719 179.15625 80.359375 178.863281 80.355469 178.570312 Z M 303.570312 124.210938 C 302.128906 124.738281 300.640625 125 299.105469 125 C 297.574219 125 296.085938 124.738281 294.644531 124.210938 L 294.644531 178.570312 C 294.640625 178.863281 294.613281 179.15625 294.554688 179.441406 C 294.5 179.730469 294.414062 180.007812 294.300781 180.277344 C 294.191406 180.550781 294.050781 180.808594 293.890625 181.050781 C 293.726562 181.292969 293.542969 181.519531 293.335938 181.726562 C 293.125 181.933594 292.902344 182.117188 292.65625 182.28125 C 292.414062 182.445312 292.15625 182.582031 291.886719 182.695312 C 291.617188 182.808594 291.335938 182.890625 291.050781 182.949219 C 290.761719 183.007812 290.472656 183.035156 290.179688 183.035156 L 250 183.035156 L 250 191.964844 L 290.179688 191.964844 C 291.058594 191.964844 291.929688 191.875 292.789062 191.703125 C 293.652344 191.53125 294.488281 191.277344 295.300781 190.941406 C 296.113281 190.605469 296.882812 190.191406 297.617188 189.703125 C 298.347656 189.214844 299.023438 188.660156 299.644531 188.035156 C 300.265625 187.414062 300.820312 186.738281 301.308594 186.007812 C 301.796875 185.277344 302.210938 184.507812 302.546875 183.695312 C 302.882812 182.882812 303.140625 182.046875 303.3125 181.183594 C 303.484375 180.320312 303.570312 179.449219 303.570312 178.570312 Z M 299.105469 267.855469 C 300.640625 267.863281 302.128906 268.125 303.570312 268.644531 L 303.570312 214.285156 C 303.570312 213.40625 303.484375 212.535156 303.3125 211.675781 C 303.140625 210.8125 302.882812 209.976562 302.546875 209.164062 C 302.210938 208.351562 301.796875 207.578125 301.308594 206.847656 C 300.820312 206.117188 300.265625 205.441406 299.644531 204.820312 C 299.023438 204.199219 298.347656 203.644531 297.617188 203.15625 C 296.882812 202.667969 296.113281 202.253906 295.300781 201.917969 C 294.488281 201.578125 293.652344 201.324219 292.789062 201.152344 C 291.929688 200.980469 291.058594 200.894531 290.179688 200.894531 L 250 200.894531 L 250 209.820312 L 290.179688 209.820312 C 290.472656 209.820312 290.761719 209.851562 291.050781 209.910156 C 291.335938 209.964844 291.617188 210.050781 291.886719 210.164062 C 292.15625 210.273438 292.414062 210.414062 292.65625 210.574219 C 292.902344 210.738281 293.125 210.921875 293.332031 211.132812 C 293.539062 211.339844 293.726562 211.5625 293.886719 211.808594 C 294.050781 212.050781 294.1875 212.308594 294.300781 212.578125 C 294.414062 212.847656 294.5 213.128906 294.554688 213.414062 C 294.613281 213.703125 294.640625 213.992188 294.644531 214.285156 L 294.644531 268.644531 C 296.085938 268.125 297.574219 267.863281 299.105469 267.855469 Z M 125 200.894531 L 84.820312 200.894531 C 83.941406 200.894531 83.070312 200.980469 82.210938 201.152344 C 81.347656 201.324219 80.511719 201.578125 79.699219 201.917969 C 78.886719 202.253906 78.117188 202.667969 77.382812 203.15625 C 76.652344 203.644531 75.976562 204.199219 75.355469 204.820312 C 74.734375 205.441406 74.179688 206.117188 73.691406 206.847656 C 73.203125 207.578125 72.789062 208.351562 72.453125 209.164062 C 72.117188 209.976562 71.859375 210.8125 71.6875 211.675781 C 71.515625 212.535156 71.429688 213.40625 71.429688 214.285156 L 71.429688 268.644531 C 72.871094 268.117188 74.359375 267.855469 75.894531 267.855469 C 77.425781 267.855469 78.914062 268.117188 80.355469 268.644531 L 80.355469 214.285156 C 80.359375 213.992188 80.386719 213.703125 80.445312 213.414062 C 80.5 213.128906 80.585938 212.847656 80.699219 212.578125 C 80.8125 212.308594 80.949219 212.050781 81.113281 211.808594 C 81.273438 211.5625 81.460938 211.339844 81.667969 211.132812 C 81.875 210.921875 82.097656 210.738281 82.34375 210.574219 C 82.585938 210.414062 82.84375 210.273438 83.113281 210.164062 C 83.382812 210.050781 83.664062 209.964844 83.949219 209.910156 C 84.238281 209.851562 84.527344 209.820312 84.820312 209.820312 L 125 209.820312 Z M 125 200.894531 " fill-opacity="1" fill-rule="nonzero"/><path fill="#2d4356" d="M 261.160156 294.644531 C 262.695312 294.648438 264.183594 294.910156 265.625 295.429688 L 265.625 227.679688 C 265.625 227.09375 265.566406 226.511719 265.453125 225.9375 C 265.335938 225.363281 265.167969 224.804688 264.941406 224.261719 C 264.71875 223.722656 264.441406 223.207031 264.117188 222.71875 C 263.792969 222.234375 263.421875 221.78125 263.007812 221.367188 C 262.59375 220.953125 262.140625 220.582031 261.65625 220.257812 C 261.167969 219.933594 260.652344 219.65625 260.113281 219.433594 C 259.570312 219.207031 259.011719 219.039062 258.4375 218.921875 C 257.863281 218.808594 257.28125 218.75 256.695312 218.75 L 250 218.75 L 250 223.214844 C 249.992188 224.75 249.726562 226.234375 249.203125 227.679688 L 256.695312 227.679688 L 256.695312 295.429688 C 258.140625 294.910156 259.628906 294.648438 261.160156 294.644531 Z M 191.964844 286.5 L 191.964844 262.605469 C 190.523438 263.128906 189.035156 263.390625 187.5 263.390625 C 185.964844 263.390625 184.476562 263.128906 183.035156 262.605469 L 183.035156 286.5 C 184.476562 285.976562 185.964844 285.714844 187.5 285.714844 C 189.035156 285.714844 190.523438 285.976562 191.964844 286.5 Z M 118.304688 295.429688 L 118.304688 227.679688 L 125.796875 227.679688 C 125.273438 226.234375 125.007812 224.75 125 223.214844 L 125 218.75 L 118.304688 218.75 C 117.71875 218.75 117.136719 218.808594 116.5625 218.921875 C 115.988281 219.039062 115.429688 219.207031 114.886719 219.433594 C 114.347656 219.65625 113.832031 219.933594 113.34375 220.257812 C 112.859375 220.582031 112.40625 220.953125 111.992188 221.367188 C 111.578125 221.78125 111.207031 222.234375 110.882812 222.71875 C 110.558594 223.207031 110.28125 223.722656 110.058594 224.261719 C 109.832031 224.804688 109.664062 225.363281 109.546875 225.9375 C 109.433594 226.511719 109.375 227.09375 109.375 227.679688 L 109.375 295.429688 C 110.816406 294.902344 112.304688 294.640625 113.839844 294.640625 C 115.375 294.640625 116.863281 294.902344 118.304688 295.429688 Z M 118.304688 295.429688 " fill-opacity="1" fill-rule="nonzero"/><path fill="#2d4356" d="M 8.929688 334.820312 C 8.929688 335.113281 8.898438 335.40625 8.84375 335.691406 C 8.785156 335.980469 8.699219 336.257812 8.589844 336.53125 C 8.476562 336.800781 8.339844 337.058594 8.175781 337.300781 C 8.011719 337.546875 7.828125 337.769531 7.621094 337.976562 C 7.414062 338.183594 7.1875 338.371094 6.945312 338.535156 C 6.699219 338.695312 6.445312 338.832031 6.171875 338.945312 C 5.902344 339.058594 5.621094 339.144531 5.335938 339.199219 C 5.046875 339.257812 4.757812 339.285156 4.464844 339.285156 C 4.171875 339.285156 3.878906 339.257812 3.59375 339.199219 C 3.304688 339.144531 3.027344 339.058594 2.757812 338.945312 C 2.484375 338.832031 2.226562 338.695312 1.984375 338.535156 C 1.742188 338.371094 1.515625 338.183594 1.308594 337.976562 C 1.101562 337.769531 0.914062 337.546875 0.753906 337.300781 C 0.589844 337.058594 0.453125 336.800781 0.339844 336.53125 C 0.226562 336.257812 0.144531 335.980469 0.0859375 335.691406 C 0.0273438 335.40625 0 335.113281 0 334.820312 C 0 334.527344 0.0273438 334.238281 0.0859375 333.949219 C 0.144531 333.664062 0.226562 333.382812 0.339844 333.113281 C 0.453125 332.84375 0.589844 332.585938 0.753906 332.339844 C 0.914062 332.097656 1.101562 331.871094 1.308594 331.664062 C 1.515625 331.457031 1.742188 331.273438 1.984375 331.109375 C 2.226562 330.945312 2.484375 330.808594 2.757812 330.695312 C 3.027344 330.585938 3.304688 330.5 3.59375 330.441406 C 3.878906 330.386719 4.171875 330.355469 4.464844 330.355469 C 4.757812 330.355469 5.046875 330.386719 5.335938 330.441406 C 5.621094 330.5 5.902344 330.585938 6.171875 330.695312 C 6.445312 330.808594 6.699219 330.945312 6.945312 331.109375 C 7.1875 331.273438 7.414062 331.457031 7.621094 331.664062 C 7.828125 331.871094 8.011719 332.097656 8.175781 332.339844 C 8.339844 332.585938 8.476562 332.84375 8.589844 333.113281 C 8.699219 333.382812 8.785156 333.664062 8.84375 333.949219 C 8.898438 334.238281 8.929688 334.527344 8.929688 334.820312 Z M 8.929688 334.820312 " fill-opacity="1" fill-rule="nonzero"/><path fill="#2d4356" d="M 24.554688 330.355469 L 17.855469 330.355469 C 17.5625 330.355469 17.273438 330.386719 16.984375 330.441406 C 16.699219 330.5 16.417969 330.585938 16.148438 330.695312 C 15.878906 330.808594 15.621094 330.945312 15.375 331.109375 C 15.132812 331.273438 14.90625 331.457031 14.699219 331.664062 C 14.492188 331.871094 14.308594 332.097656 14.144531 332.339844 C 13.980469 332.585938 13.84375 332.84375 13.734375 333.113281 C 13.621094 333.382812 13.535156 333.664062 13.480469 333.949219 C 13.421875 334.238281 13.394531 334.527344 13.394531 334.820312 C 13.394531 335.113281 13.421875 335.40625 13.480469 335.691406 C 13.535156 335.980469 13.621094 336.257812 13.734375 336.53125 C 13.84375 336.800781 13.980469 337.058594 14.144531 337.300781 C 14.308594 337.546875 14.492188 337.769531 14.699219 337.976562 C 14.90625 338.183594 15.132812 338.371094 15.375 338.535156 C 15.621094 338.695312 15.878906 338.832031 16.148438 338.945312 C 16.417969 339.058594 16.699219 339.144531 16.984375 339.199219 C 17.273438 339.257812 17.5625 339.285156 17.855469 339.285156 L 24.554688 339.285156 C 24.847656 339.285156 25.136719 339.257812 25.425781 339.199219 C 25.710938 339.144531 25.992188 339.058594 26.261719 338.945312 C 26.53125 338.832031 26.789062 338.695312 27.035156 338.535156 C 27.277344 338.371094 27.503906 338.183594 27.710938 337.976562 C 27.917969 337.769531 28.101562 337.546875 28.265625 337.300781 C 28.429688 337.058594 28.566406 336.800781 28.679688 336.53125 C 28.789062 336.257812 28.875 335.980469 28.933594 335.691406 C 28.988281 335.40625 29.019531 335.113281 29.019531 334.820312 C 29.019531 334.527344 28.988281 334.238281 28.933594 333.949219 C 28.875 333.664062 28.789062 333.382812 28.679688 333.113281 C 28.566406 332.84375 28.429688 332.585938 28.265625 332.339844 C 28.101562 332.097656 27.917969 331.871094 27.710938 331.664062 C 27.503906 331.457031 27.277344 331.273438 27.035156 331.109375 C 26.789062 330.945312 26.53125 330.808594 26.261719 330.695312 C 25.992188 330.585938 25.710938 330.5 25.425781 330.441406 C 25.136719 330.386719 24.847656 330.355469 24.554688 330.355469 Z M 357.144531 330.355469 L 350.445312 330.355469 C 350.152344 330.355469 349.863281 330.386719 349.574219 330.441406 C 349.289062 330.5 349.007812 330.585938 348.738281 330.695312 C 348.46875 330.808594 348.210938 330.945312 347.964844 331.109375 C 347.722656 331.273438 347.496094 331.457031 347.289062 331.664062 C 347.082031 331.871094 346.898438 332.097656 346.734375 332.339844 C 346.570312 332.585938 346.433594 332.84375 346.320312 333.113281 C 346.210938 333.382812 346.125 333.664062 346.066406 333.949219 C 346.011719 334.238281 345.980469 334.527344 345.980469 334.820312 C 345.980469 335.113281 346.011719 335.40625 346.066406 335.691406 C 346.125 335.980469 346.210938 336.257812 346.320312 336.53125 C 346.433594 336.800781 346.570312 337.058594 346.734375 337.300781 C 346.898438 337.546875 347.082031 337.769531 347.289062 337.976562 C 347.496094 338.183594 347.722656 338.371094 347.964844 338.535156 C 348.210938 338.695312 348.46875 338.832031 348.738281 338.945312 C 349.007812 339.058594 349.289062 339.144531 349.574219 339.199219 C 349.863281 339.257812 350.152344 339.285156 350.445312 339.285156 L 357.144531 339.285156 C 357.4375 339.285156 357.726562 339.257812 358.015625 339.199219 C 358.300781 339.144531 358.582031 339.058594 358.851562 338.945312 C 359.121094 338.832031 359.378906 338.695312 359.621094 338.535156 C 359.867188 338.371094 360.09375 338.183594 360.300781 337.976562 C 360.507812 337.769531 360.691406 337.546875 360.855469 337.300781 C 361.015625 337.058594 361.15625 336.800781 361.265625 336.53125 C 361.378906 336.257812 361.464844 335.980469 361.519531 335.691406 C 361.578125 335.40625 361.605469 335.113281 361.605469 334.820312 C 361.605469 334.527344 361.578125 334.238281 361.519531 333.949219 C 361.464844 333.664062 361.378906 333.382812 361.265625 333.113281 C 361.15625 332.84375 361.015625 332.585938 360.855469 332.339844 C 360.691406 332.097656 360.507812 331.871094 360.300781 331.664062 C 360.09375 331.457031 359.867188 331.273438 359.621094 331.109375 C 359.378906 330.945312 359.121094 330.808594 358.851562 330.695312 C 358.582031 330.585938 358.300781 330.5 358.015625 330.441406 C 357.726562 330.386719 357.4375 330.355469 357.144531 330.355469 Z M 357.144531 330.355469 " fill-opacity="1" fill-rule="nonzero"/><path fill="#2d4356" d="M 375 334.820312 C 375 335.113281 374.972656 335.40625 374.914062 335.691406 C 374.855469 335.980469 374.773438 336.257812 374.660156 336.53125 C 374.546875 336.800781 374.410156 337.058594 374.246094 337.300781 C 374.085938 337.546875 373.898438 337.769531 373.691406 337.976562 C 373.484375 338.183594 373.257812 338.371094 373.015625 338.535156 C 372.773438 338.695312 372.515625 338.832031 372.242188 338.945312 C 371.972656 339.058594 371.695312 339.144531 371.40625 339.199219 C 371.117188 339.257812 370.828125 339.285156 370.535156 339.285156 C 370.242188 339.285156 369.953125 339.257812 369.664062 339.199219 C 369.378906 339.144531 369.097656 339.058594 368.828125 338.945312 C 368.554688 338.832031 368.300781 338.695312 368.054688 338.535156 C 367.8125 338.371094 367.585938 338.183594 367.378906 337.976562 C 367.171875 337.769531 366.988281 337.546875 366.824219 337.300781 C 366.660156 337.058594 366.523438 336.800781 366.410156 336.53125 C 366.300781 336.257812 366.214844 335.980469 366.15625 335.691406 C 366.101562 335.40625 366.070312 335.113281 366.070312 334.820312 C 366.070312 334.527344 366.101562 334.238281 366.15625 333.949219 C 366.214844 333.664062 366.300781 333.382812 366.410156 333.113281 C 366.523438 332.84375 366.660156 332.585938 366.824219 332.339844 C 366.988281 332.097656 367.171875 331.871094 367.378906 331.664062 C 367.585938 331.457031 367.8125 331.273438 368.054688 331.109375 C 368.300781 330.945312 368.554688 330.808594 368.828125 330.695312 C 369.097656 330.585938 369.378906 330.5 369.664062 330.441406 C 369.953125 330.386719 370.242188 330.355469 370.535156 330.355469 C 370.828125 330.355469 371.117188 330.386719 371.40625 330.441406 C 371.695312 330.5 371.972656 330.585938 372.242188 330.695312 C 372.515625 330.808594 372.773438 330.945312 373.015625 331.109375 C 373.257812 331.273438 373.484375 331.457031 373.691406 331.664062 C 373.898438 331.871094 374.085938 332.097656 374.246094 332.339844 C 374.410156 332.585938 374.546875 332.84375 374.660156 333.113281 C 374.773438 333.382812 374.855469 333.664062 374.914062 333.949219 C 374.972656 334.238281 375 334.527344 375 334.820312 Z M 375 334.820312 " fill-opacity="1" fill-rule="nonzero"/><path fill="#004aad" d="M 263.738281 348.214844 L 245.191406 348.214844 C 244.628906 348.257812 244.09375 348.402344 243.585938 348.648438 C 243.078125 348.894531 242.632812 349.222656 242.25 349.636719 C 241.867188 350.050781 241.574219 350.519531 241.367188 351.046875 C 241.164062 351.570312 241.058594 352.113281 241.058594 352.679688 C 241.058594 353.242188 241.164062 353.785156 241.367188 354.3125 C 241.574219 354.835938 241.867188 355.304688 242.25 355.71875 C 242.632812 356.132812 243.078125 356.464844 243.585938 356.710938 C 244.09375 356.953125 244.628906 357.097656 245.191406 357.144531 L 263.738281 357.144531 C 264.296875 357.097656 264.832031 356.953125 265.339844 356.710938 C 265.847656 356.464844 266.292969 356.132812 266.675781 355.71875 C 267.058594 355.304688 267.355469 354.835938 267.558594 354.3125 C 267.765625 353.785156 267.867188 353.242188 267.867188 352.679688 C 267.867188 352.113281 267.765625 351.570312 267.558594 351.046875 C 267.355469 350.519531 267.058594 350.050781 266.675781 349.636719 C 266.292969 349.222656 265.847656 348.894531 265.339844 348.648438 C 264.832031 348.402344 264.296875 348.257812 263.738281 348.214844 Z M 129.808594 348.214844 L 111.261719 348.214844 C 110.703125 348.257812 110.167969 348.402344 109.660156 348.648438 C 109.152344 348.894531 108.707031 349.222656 108.324219 349.636719 C 107.941406 350.050781 107.644531 350.519531 107.441406 351.046875 C 107.234375 351.570312 107.132812 352.113281 107.132812 352.679688 C 107.132812 353.242188 107.234375 353.785156 107.441406 354.3125 C 107.644531 354.835938 107.941406 355.304688 108.324219 355.71875 C 108.707031 356.132812 109.152344 356.464844 109.660156 356.710938 C 110.167969 356.953125 110.703125 357.097656 111.261719 357.144531 L 129.808594 357.144531 C 130.371094 357.097656 130.90625 356.953125 131.414062 356.710938 C 131.921875 356.464844 132.367188 356.132812 132.75 355.71875 C 133.132812 355.304688 133.425781 354.835938 133.632812 354.3125 C 133.835938 353.785156 133.941406 353.242188 133.941406 352.679688 C 133.941406 352.113281 133.835938 351.570312 133.632812 351.046875 C 133.425781 350.519531 133.132812 350.050781 132.75 349.636719 C 132.367188 349.222656 131.921875 348.894531 131.414062 348.648438 C 130.90625 348.402344 130.371094 348.257812 129.808594 348.214844 Z M 232.144531 348.214844 L 142.855469 348.214844 C 142.5625 348.214844 142.273438 348.242188 141.984375 348.300781 C 141.699219 348.355469 141.417969 348.441406 141.148438 348.554688 C 140.878906 348.667969 140.621094 348.804688 140.375 348.964844 C 140.132812 349.128906 139.90625 349.316406 139.699219 349.523438 C 139.492188 349.730469 139.308594 349.953125 139.144531 350.199219 C 138.980469 350.441406 138.84375 350.699219 138.734375 350.96875 C 138.621094 351.242188 138.535156 351.519531 138.480469 351.808594 C 138.421875 352.09375 138.394531 352.386719 138.394531 352.679688 C 138.394531 352.972656 138.421875 353.261719 138.480469 353.550781 C 138.535156 353.835938 138.621094 354.117188 138.734375 354.386719 C 138.84375 354.65625 138.980469 354.914062 139.144531 355.160156 C 139.308594 355.402344 139.492188 355.628906 139.699219 355.835938 C 139.90625 356.042969 140.132812 356.226562 140.375 356.390625 C 140.621094 356.554688 140.878906 356.691406 141.148438 356.804688 C 141.417969 356.914062 141.699219 357 141.984375 357.058594 C 142.273438 357.113281 142.5625 357.144531 142.855469 357.144531 L 178.4375 357.144531 L 178.4375 361.605469 L 160.714844 361.605469 C 160.421875 361.605469 160.128906 361.636719 159.84375 361.691406 C 159.554688 361.75 159.277344 361.835938 159.003906 361.945312 C 158.734375 362.058594 158.476562 362.195312 158.234375 362.359375 C 157.992188 362.523438 157.765625 362.707031 157.558594 362.914062 C 157.351562 363.121094 157.164062 363.347656 157.003906 363.589844 C 156.839844 363.835938 156.703125 364.09375 156.589844 364.363281 C 156.476562 364.632812 156.394531 364.914062 156.335938 365.199219 C 156.277344 365.488281 156.25 365.777344 156.25 366.070312 C 156.25 366.363281 156.277344 366.65625 156.335938 366.941406 C 156.394531 367.230469 156.476562 367.507812 156.589844 367.78125 C 156.703125 368.050781 156.839844 368.308594 157.003906 368.550781 C 157.164062 368.796875 157.351562 369.019531 157.558594 369.226562 C 157.765625 369.433594 157.992188 369.621094 158.234375 369.785156 C 158.476562 369.945312 158.734375 370.082031 159.003906 370.195312 C 159.277344 370.308594 159.554688 370.394531 159.84375 370.449219 C 160.128906 370.507812 160.421875 370.535156 160.714844 370.535156 L 216.519531 370.535156 C 216.8125 370.535156 217.101562 370.507812 217.390625 370.449219 C 217.675781 370.394531 217.957031 370.308594 218.226562 370.195312 C 218.496094 370.082031 218.753906 369.945312 219 369.785156 C 219.242188 369.621094 219.46875 369.433594 219.675781 369.226562 C 219.882812 369.019531 220.066406 368.796875 220.230469 368.550781 C 220.394531 368.308594 220.53125 368.050781 220.640625 367.78125 C 220.753906 367.507812 220.839844 367.230469 220.894531 366.941406 C 220.953125 366.65625 220.980469 366.363281 220.980469 366.070312 C 220.980469 365.777344 220.953125 365.488281 220.894531 365.199219 C 220.839844 364.914062 220.753906 364.632812 220.640625 364.363281 C 220.53125 364.09375 220.394531 363.835938 220.230469 363.589844 C 220.066406 363.347656 219.882812 363.121094 219.675781 362.914062 C 219.46875 362.707031 219.242188 362.523438 219 362.359375 C 218.753906 362.195312 218.496094 362.058594 218.226562 361.945312 C 217.957031 361.835938 217.675781 361.75 217.390625 361.691406 C 217.101562 361.636719 216.8125 361.605469 216.519531 361.605469 L 196.5625 361.605469 L 196.5625 357.144531 L 232.144531 357.144531 C 232.4375 357.144531 232.726562 357.113281 233.015625 357.058594 C 233.300781 357 233.582031 356.914062 233.851562 356.804688 C 234.121094 356.691406 234.378906 356.554688 234.625 356.390625 C 234.867188 356.226562 235.09375 356.042969 235.300781 355.835938 C 235.507812 355.628906 235.691406 355.402344 235.855469 355.160156 C 236.015625 354.914062 236.15625 354.65625 236.265625 354.386719 C 236.378906 354.117188 236.464844 353.835938 236.519531 353.550781 C 236.578125 353.261719 236.605469 352.972656 236.605469 352.679688 C 236.605469 352.386719 236.578125 352.09375 236.519531 351.808594 C 236.464844 351.519531 236.378906 351.242188 236.265625 350.96875 C 236.15625 350.699219 236.015625 350.441406 235.855469 350.199219 C 235.691406 349.953125 235.507812 349.730469 235.300781 349.523438 C 235.09375 349.316406 234.867188 349.128906 234.621094 348.964844 C 234.378906 348.804688 234.121094 348.667969 233.851562 348.554688 C 233.582031 348.441406 233.300781 348.355469 233.015625 348.300781 C 232.726562 348.242188 232.4375 348.214844 232.144531 348.214844 Z M 232.144531 348.214844 " fill-opacity="1" fill-rule="nonzero"/><path fill="#2d4356" d="M 336.429688 330.355469 L 277.300781 330.355469 C 277.699219 329.667969 277.902344 328.921875 277.902344 328.125 L 277.902344 314.730469 C 277.902344 313.914062 277.695312 313.15625 277.277344 312.453125 C 276.863281 311.75 276.296875 311.203125 275.578125 310.8125 L 263.300781 304.117188 C 262.636719 303.753906 261.921875 303.570312 261.164062 303.570312 C 260.402344 303.570312 259.691406 303.753906 259.023438 304.117188 L 246.746094 310.8125 C 246.03125 311.203125 245.464844 311.75 245.046875 312.453125 C 244.628906 313.15625 244.417969 313.914062 244.417969 314.730469 L 244.417969 328.125 C 244.421875 328.921875 244.625 329.667969 245.023438 330.355469 L 129.976562 330.355469 C 130.378906 329.667969 130.582031 328.921875 130.582031 328.125 L 130.582031 314.730469 C 130.582031 313.914062 130.375 313.15625 129.957031 312.453125 C 129.539062 311.75 128.972656 311.203125 128.257812 310.8125 L 115.980469 304.117188 C 115.3125 303.753906 114.601562 303.570312 113.839844 303.570312 C 113.082031 303.570312 112.371094 303.753906 111.703125 304.117188 L 99.425781 310.8125 C 98.707031 311.203125 98.140625 311.75 97.722656 312.453125 C 97.308594 313.15625 97.097656 313.914062 97.097656 314.730469 L 97.097656 328.125 C 97.101562 328.921875 97.300781 329.667969 97.703125 330.355469 L 38.570312 330.355469 C 38.253906 330.316406 37.933594 330.308594 37.617188 330.335938 C 37.296875 330.359375 36.984375 330.421875 36.679688 330.515625 C 36.371094 330.605469 36.078125 330.730469 35.796875 330.886719 C 35.519531 331.042969 35.257812 331.226562 35.019531 331.4375 C 34.777344 331.648438 34.5625 331.882812 34.371094 332.140625 C 34.179688 332.398438 34.019531 332.671875 33.886719 332.964844 C 33.753906 333.257812 33.65625 333.558594 33.585938 333.871094 C 33.519531 334.183594 33.484375 334.5 33.484375 334.820312 C 33.484375 335.140625 33.519531 335.457031 33.585938 335.769531 C 33.65625 336.085938 33.753906 336.386719 33.886719 336.679688 C 34.019531 336.96875 34.179688 337.246094 34.371094 337.503906 C 34.5625 337.757812 34.777344 337.992188 35.019531 338.203125 C 35.257812 338.417969 35.519531 338.601562 35.796875 338.753906 C 36.078125 338.910156 36.371094 339.035156 36.679688 339.128906 C 36.984375 339.222656 37.296875 339.28125 37.617188 339.308594 C 37.933594 339.335938 38.253906 339.328125 38.570312 339.285156 L 336.429688 339.285156 C 336.746094 339.328125 337.066406 339.335938 337.382812 339.308594 C 337.703125 339.28125 338.015625 339.222656 338.320312 339.128906 C 338.628906 339.035156 338.921875 338.910156 339.203125 338.753906 C 339.480469 338.601562 339.742188 338.417969 339.980469 338.203125 C 340.222656 337.992188 340.4375 337.757812 340.628906 337.503906 C 340.820312 337.246094 340.980469 336.96875 341.113281 336.679688 C 341.246094 336.386719 341.34375 336.085938 341.414062 335.769531 C 341.480469 335.457031 341.515625 335.140625 341.515625 334.820312 C 341.515625 334.5 341.480469 334.183594 341.414062 333.871094 C 341.34375 333.558594 341.246094 333.257812 341.113281 332.964844 C 340.980469 332.671875 340.820312 332.398438 340.628906 332.140625 C 340.4375 331.882812 340.222656 331.648438 339.980469 331.4375 C 339.742188 331.226562 339.480469 331.042969 339.203125 330.886719 C 338.921875 330.730469 338.628906 330.605469 338.320312 330.515625 C 338.015625 330.421875 337.703125 330.359375 337.382812 330.335938 C 337.066406 330.308594 336.746094 330.316406 336.429688 330.355469 Z M 253.347656 317.382812 L 261.160156 313.121094 L 268.972656 317.382812 L 268.972656 325.472656 L 261.160156 329.738281 L 253.347656 325.472656 Z M 106.027344 317.382812 L 113.839844 313.121094 L 121.652344 317.382812 L 121.652344 325.472656 L 113.839844 329.738281 L 106.027344 325.472656 Z M 208.269531 50.886719 C 208.710938 50.886719 209.144531 50.84375 209.578125 50.757812 C 210.007812 50.671875 210.425781 50.542969 210.832031 50.375 C 211.238281 50.207031 211.625 50 211.992188 49.757812 C 212.355469 49.511719 212.695312 49.234375 213.003906 48.925781 C 213.316406 48.613281 213.59375 48.277344 213.839844 47.910156 C 214.082031 47.542969 214.289062 47.160156 214.457031 46.753906 C 214.625 46.347656 214.753906 45.925781 214.835938 45.496094 C 214.921875 45.066406 214.964844 44.628906 214.964844 44.191406 C 214.964844 43.75 214.921875 43.316406 214.835938 42.882812 C 214.753906 42.453125 214.625 42.035156 214.457031 41.628906 C 214.289062 41.222656 214.082031 40.835938 213.839844 40.46875 C 213.59375 40.105469 213.316406 39.765625 213.003906 39.453125 C 212.695312 39.144531 212.355469 38.867188 211.992188 38.621094 C 211.625 38.378906 211.238281 38.171875 210.832031 38.003906 C 210.425781 37.835938 210.007812 37.707031 209.578125 37.621094 C 209.144531 37.535156 208.710938 37.492188 208.269531 37.492188 C 207.832031 37.492188 207.394531 37.535156 206.964844 37.621094 C 206.53125 37.707031 206.113281 37.835938 205.707031 38.003906 C 205.300781 38.171875 204.914062 38.378906 204.550781 38.621094 C 204.183594 38.867188 203.847656 39.144531 203.535156 39.453125 C 203.222656 39.765625 202.945312 40.105469 202.703125 40.46875 C 202.457031 40.835938 202.25 41.222656 202.082031 41.628906 C 201.914062 42.035156 201.789062 42.453125 201.703125 42.882812 C 201.617188 43.316406 201.574219 43.75 201.574219 44.191406 C 201.574219 44.628906 201.617188 45.066406 201.703125 45.496094 C 201.789062 45.925781 201.917969 46.34375 202.085938 46.75 C 202.253906 47.15625 202.460938 47.542969 202.703125 47.910156 C 202.949219 48.273438 203.226562 48.613281 203.535156 48.921875 C 203.847656 49.234375 204.1875 49.511719 204.550781 49.753906 C 204.917969 50 205.300781 50.207031 205.707031 50.375 C 206.113281 50.542969 206.53125 50.671875 206.964844 50.757812 C 207.394531 50.84375 207.832031 50.886719 208.269531 50.886719 Z M 208.269531 40.839844 C 208.714844 40.839844 209.140625 40.925781 209.550781 41.097656 C 209.960938 41.265625 210.324219 41.507812 210.636719 41.820312 C 210.953125 42.136719 211.195312 42.5 211.363281 42.910156 C 211.535156 43.320312 211.617188 43.746094 211.617188 44.191406 C 211.617188 44.632812 211.535156 45.0625 211.363281 45.472656 C 211.195312 45.882812 210.953125 46.242188 210.636719 46.558594 C 210.324219 46.871094 209.960938 47.113281 209.550781 47.28125 C 209.140625 47.453125 208.714844 47.539062 208.269531 47.539062 C 207.824219 47.539062 207.398438 47.453125 206.988281 47.28125 C 206.578125 47.113281 206.214844 46.871094 205.902344 46.558594 C 205.589844 46.242188 205.347656 45.882812 205.175781 45.472656 C 205.007812 45.0625 204.921875 44.632812 204.921875 44.191406 C 204.921875 43.746094 205.007812 43.320312 205.175781 42.910156 C 205.347656 42.5 205.589844 42.136719 205.902344 41.824219 C 206.21875 41.507812 206.578125 41.265625 206.988281 41.097656 C 207.398438 40.925781 207.824219 40.84375 208.269531 40.839844 Z M 363.902344 125.785156 C 363.609375 125.785156 363.320312 125.8125 363.03125 125.871094 C 362.746094 125.929688 362.464844 126.011719 362.195312 126.125 C 361.925781 126.238281 361.667969 126.375 361.421875 126.539062 C 361.179688 126.699219 360.953125 126.886719 360.746094 127.09375 C 360.539062 127.300781 360.355469 127.527344 360.191406 127.769531 C 360.027344 128.011719 359.890625 128.269531 359.78125 128.542969 C 359.667969 128.8125 359.582031 129.089844 359.527344 129.378906 C 359.46875 129.667969 359.441406 129.957031 359.441406 130.25 C 359.441406 130.542969 359.46875 130.832031 359.527344 131.121094 C 359.582031 131.410156 359.667969 131.6875 359.78125 131.957031 C 359.890625 132.230469 360.027344 132.488281 360.191406 132.730469 C 360.355469 132.972656 360.539062 133.199219 360.746094 133.40625 C 360.953125 133.613281 361.179688 133.800781 361.421875 133.960938 C 361.667969 134.125 361.925781 134.261719 362.195312 134.375 C 362.464844 134.488281 362.746094 134.570312 363.03125 134.628906 C 363.320312 134.6875 363.609375 134.714844 363.902344 134.714844 C 364.195312 134.714844 364.488281 134.6875 364.773438 134.628906 C 365.0625 134.570312 365.339844 134.488281 365.613281 134.375 C 365.882812 134.261719 366.140625 134.125 366.382812 133.960938 C 366.628906 133.800781 366.851562 133.613281 367.0625 133.40625 C 367.269531 133.199219 367.453125 132.972656 367.617188 132.730469 C 367.777344 132.488281 367.917969 132.230469 368.027344 131.957031 C 368.140625 131.6875 368.226562 131.410156 368.28125 131.121094 C 368.339844 130.832031 368.367188 130.542969 368.367188 130.25 C 368.367188 129.957031 368.339844 129.667969 368.28125 129.378906 C 368.222656 129.09375 368.140625 128.8125 368.027344 128.542969 C 367.914062 128.273438 367.777344 128.015625 367.613281 127.769531 C 367.453125 127.527344 367.265625 127.300781 367.058594 127.09375 C 366.851562 126.886719 366.625 126.703125 366.382812 126.539062 C 366.140625 126.375 365.882812 126.238281 365.613281 126.125 C 365.339844 126.015625 365.0625 125.929688 364.773438 125.871094 C 364.488281 125.816406 364.195312 125.785156 363.902344 125.785156 Z M 363.902344 132.480469 C 363.609375 132.480469 363.324219 132.425781 363.050781 132.3125 C 362.777344 132.199219 362.535156 132.039062 362.324219 131.828125 C 362.117188 131.617188 361.953125 131.378906 361.839844 131.105469 C 361.726562 130.832031 361.671875 130.546875 361.671875 130.25 C 361.671875 129.953125 361.726562 129.667969 361.839844 129.394531 C 361.953125 129.121094 362.117188 128.882812 362.324219 128.671875 C 362.535156 128.460938 362.777344 128.300781 363.050781 128.1875 C 363.324219 128.074219 363.609375 128.019531 363.902344 128.019531 C 364.199219 128.019531 364.484375 128.074219 364.757812 128.1875 C 365.03125 128.300781 365.273438 128.460938 365.480469 128.671875 C 365.691406 128.882812 365.851562 129.121094 365.964844 129.394531 C 366.078125 129.667969 366.136719 129.953125 366.136719 130.25 C 366.136719 130.546875 366.078125 130.832031 365.964844 131.105469 C 365.851562 131.378906 365.691406 131.617188 365.480469 131.828125 C 365.273438 132.035156 365.03125 132.199219 364.757812 132.3125 C 364.484375 132.425781 364.199219 132.480469 363.902344 132.480469 Z M 306.917969 5.691406 C 306.625 5.691406 306.335938 5.71875 306.046875 5.777344 C 305.761719 5.835938 305.480469 5.917969 305.210938 6.03125 C 304.941406 6.144531 304.683594 6.28125 304.4375 6.445312 C 304.195312 6.605469 303.96875 6.792969 303.761719 7 C 303.554688 7.207031 303.371094 7.433594 303.207031 7.675781 C 303.042969 7.917969 302.90625 8.175781 302.796875 8.449219 C 302.683594 8.71875 302.597656 8.996094 302.542969 9.285156 C 302.484375 9.574219 302.457031 9.863281 302.457031 10.15625 C 302.457031 10.449219 302.484375 10.738281 302.542969 11.027344 C 302.597656 11.316406 302.683594 11.59375 302.796875 11.863281 C 302.90625 12.136719 303.042969 12.394531 303.207031 12.636719 C 303.371094 12.878906 303.554688 13.105469 303.761719 13.3125 C 303.96875 13.519531 304.195312 13.707031 304.4375 13.867188 C 304.683594 14.03125 304.941406 14.167969 305.210938 14.28125 C 305.480469 14.394531 305.761719 14.476562 306.046875 14.535156 C 306.335938 14.59375 306.625 14.621094 306.917969 14.621094 C 307.210938 14.621094 307.503906 14.59375 307.789062 14.535156 C 308.078125 14.476562 308.355469 14.394531 308.628906 14.28125 C 308.898438 14.167969 309.15625 14.03125 309.398438 13.867188 C 309.644531 13.707031 309.867188 13.519531 310.078125 13.3125 C 310.285156 13.105469 310.46875 12.878906 310.632812 12.636719 C 310.792969 12.394531 310.933594 12.136719 311.042969 11.863281 C 311.15625 11.59375 311.242188 11.316406 311.296875 11.027344 C 311.355469 10.738281 311.382812 10.449219 311.382812 10.15625 C 311.382812 9.863281 311.355469 9.574219 311.296875 9.285156 C 311.238281 9 311.15625 8.71875 311.042969 8.449219 C 310.929688 8.179688 310.792969 7.921875 310.628906 7.675781 C 310.46875 7.433594 310.28125 7.207031 310.074219 7 C 309.867188 6.792969 309.640625 6.609375 309.398438 6.445312 C 309.15625 6.28125 308.898438 6.144531 308.628906 6.03125 C 308.355469 5.921875 308.078125 5.835938 307.789062 5.777344 C 307.503906 5.722656 307.210938 5.691406 306.917969 5.691406 Z M 306.917969 12.386719 C 306.625 12.386719 306.339844 12.332031 306.066406 12.21875 C 305.792969 12.105469 305.550781 11.945312 305.339844 11.734375 C 305.132812 11.523438 304.96875 11.285156 304.855469 11.011719 C 304.742188 10.738281 304.6875 10.453125 304.6875 10.15625 C 304.6875 9.859375 304.742188 9.574219 304.855469 9.300781 C 304.96875 9.027344 305.132812 8.789062 305.339844 8.578125 C 305.550781 8.367188 305.792969 8.207031 306.066406 8.09375 C 306.339844 7.980469 306.625 7.925781 306.917969 7.925781 C 307.214844 7.925781 307.5 7.980469 307.773438 8.09375 C 308.046875 8.207031 308.289062 8.367188 308.496094 8.578125 C 308.707031 8.789062 308.867188 9.027344 308.980469 9.300781 C 309.09375 9.574219 309.152344 9.859375 309.152344 10.15625 C 309.152344 10.453125 309.09375 10.738281 308.980469 11.011719 C 308.867188 11.285156 308.707031 11.523438 308.496094 11.734375 C 308.289062 11.941406 308.046875 12.105469 307.773438 12.21875 C 307.5 12.332031 307.214844 12.386719 306.917969 12.386719 Z M 334.5 88.664062 C 334.207031 88.664062 333.917969 88.695312 333.628906 88.75 C 333.339844 88.808594 333.0625 88.894531 332.792969 89.003906 C 332.519531 89.117188 332.261719 89.253906 332.019531 89.417969 C 331.777344 89.582031 331.550781 89.765625 331.34375 89.972656 C 331.136719 90.179688 330.949219 90.40625 330.789062 90.648438 C 330.625 90.894531 330.488281 91.148438 330.375 91.421875 C 330.261719 91.691406 330.179688 91.972656 330.121094 92.257812 C 330.0625 92.546875 330.035156 92.835938 330.035156 93.128906 C 330.035156 93.421875 330.0625 93.714844 330.121094 94 C 330.179688 94.289062 330.261719 94.566406 330.375 94.835938 C 330.488281 95.109375 330.625 95.367188 330.789062 95.609375 C 330.949219 95.851562 331.136719 96.078125 331.34375 96.285156 C 331.550781 96.492188 331.777344 96.679688 332.019531 96.839844 C 332.261719 97.003906 332.519531 97.140625 332.792969 97.253906 C 333.0625 97.367188 333.339844 97.449219 333.628906 97.507812 C 333.917969 97.566406 334.207031 97.59375 334.5 97.59375 C 334.792969 97.59375 335.082031 97.566406 335.371094 97.507812 C 335.660156 97.449219 335.9375 97.367188 336.207031 97.253906 C 336.480469 97.140625 336.738281 97.003906 336.980469 96.839844 C 337.222656 96.679688 337.449219 96.492188 337.65625 96.285156 C 337.863281 96.078125 338.050781 95.851562 338.210938 95.609375 C 338.375 95.367188 338.511719 95.109375 338.625 94.835938 C 338.738281 94.566406 338.820312 94.289062 338.878906 94 C 338.9375 93.714844 338.964844 93.421875 338.964844 93.128906 C 338.964844 92.835938 338.933594 92.546875 338.878906 92.257812 C 338.820312 91.972656 338.734375 91.691406 338.625 91.421875 C 338.511719 91.152344 338.375 90.894531 338.210938 90.648438 C 338.046875 90.40625 337.863281 90.179688 337.65625 89.972656 C 337.449219 89.765625 337.222656 89.582031 336.980469 89.417969 C 336.734375 89.257812 336.476562 89.117188 336.207031 89.007812 C 335.9375 88.894531 335.65625 88.808594 335.371094 88.75 C 335.082031 88.695312 334.792969 88.664062 334.5 88.664062 Z M 334.5 95.363281 C 334.203125 95.363281 333.917969 95.304688 333.644531 95.191406 C 333.371094 95.078125 333.132812 94.917969 332.921875 94.707031 C 332.710938 94.5 332.550781 94.257812 332.4375 93.984375 C 332.324219 93.710938 332.269531 93.425781 332.269531 93.128906 C 332.269531 92.832031 332.324219 92.546875 332.4375 92.273438 C 332.550781 92 332.710938 91.761719 332.921875 91.550781 C 333.132812 91.339844 333.371094 91.179688 333.644531 91.066406 C 333.917969 90.953125 334.203125 90.898438 334.5 90.898438 C 334.796875 90.898438 335.082031 90.953125 335.355469 91.066406 C 335.628906 91.179688 335.867188 91.339844 336.078125 91.550781 C 336.289062 91.761719 336.449219 92 336.5625 92.273438 C 336.675781 92.546875 336.730469 92.832031 336.730469 93.128906 C 336.730469 93.425781 336.675781 93.710938 336.5625 93.984375 C 336.449219 94.257812 336.285156 94.496094 336.078125 94.707031 C 335.867188 94.917969 335.628906 95.078125 335.355469 95.191406 C 335.082031 95.304688 334.796875 95.359375 334.5 95.363281 Z M 50.222656 66.964844 C 50.222656 66.671875 50.195312 66.378906 50.136719 66.09375 C 50.082031 65.804688 49.996094 65.527344 49.882812 65.257812 C 49.769531 64.984375 49.632812 64.726562 49.472656 64.484375 C 49.308594 64.242188 49.121094 64.015625 48.914062 63.808594 C 48.707031 63.601562 48.484375 63.414062 48.238281 63.253906 C 47.996094 63.089844 47.738281 62.953125 47.46875 62.839844 C 47.195312 62.726562 46.917969 62.644531 46.628906 62.585938 C 46.34375 62.527344 46.050781 62.5 45.757812 62.5 C 45.464844 62.5 45.175781 62.527344 44.886719 62.585938 C 44.601562 62.644531 44.320312 62.726562 44.050781 62.839844 C 43.78125 62.953125 43.523438 63.089844 43.277344 63.253906 C 43.035156 63.414062 42.808594 63.601562 42.601562 63.808594 C 42.394531 64.015625 42.210938 64.242188 42.046875 64.484375 C 41.882812 64.726562 41.746094 64.984375 41.632812 65.257812 C 41.523438 65.527344 41.4375 65.804688 41.378906 66.09375 C 41.324219 66.378906 41.292969 66.671875 41.292969 66.964844 C 41.292969 67.257812 41.324219 67.546875 41.378906 67.835938 C 41.4375 68.121094 41.523438 68.402344 41.632812 68.671875 C 41.746094 68.945312 41.882812 69.199219 42.046875 69.445312 C 42.210938 69.6875 42.394531 69.914062 42.601562 70.121094 C 42.808594 70.328125 43.035156 70.511719 43.277344 70.675781 C 43.523438 70.839844 43.78125 70.976562 44.050781 71.089844 C 44.320312 71.199219 44.601562 71.285156 44.886719 71.34375 C 45.175781 71.398438 45.464844 71.429688 45.757812 71.429688 C 46.050781 71.429688 46.34375 71.398438 46.628906 71.34375 C 46.917969 71.285156 47.195312 71.199219 47.464844 71.085938 C 47.738281 70.976562 47.996094 70.835938 48.238281 70.675781 C 48.480469 70.511719 48.707031 70.328125 48.914062 70.121094 C 49.121094 69.914062 49.304688 69.6875 49.46875 69.445312 C 49.632812 69.199219 49.769531 68.941406 49.882812 68.671875 C 49.996094 68.402344 50.078125 68.121094 50.136719 67.835938 C 50.195312 67.546875 50.222656 67.257812 50.222656 66.964844 Z M 43.527344 66.964844 C 43.527344 66.667969 43.582031 66.382812 43.695312 66.109375 C 43.808594 65.835938 43.972656 65.59375 44.179688 65.386719 C 44.390625 65.175781 44.632812 65.015625 44.90625 64.902344 C 45.179688 64.789062 45.464844 64.730469 45.757812 64.730469 C 46.054688 64.730469 46.339844 64.789062 46.613281 64.902344 C 46.886719 65.015625 47.128906 65.175781 47.335938 65.386719 C 47.546875 65.59375 47.707031 65.835938 47.820312 66.109375 C 47.933594 66.382812 47.992188 66.667969 47.992188 66.964844 C 47.992188 67.261719 47.933594 67.546875 47.820312 67.820312 C 47.707031 68.09375 47.546875 68.332031 47.335938 68.542969 C 47.128906 68.75 46.886719 68.914062 46.613281 69.027344 C 46.339844 69.140625 46.054688 69.195312 45.757812 69.195312 C 45.464844 69.195312 45.179688 69.140625 44.90625 69.027344 C 44.632812 68.914062 44.390625 68.75 44.179688 68.542969 C 43.972656 68.332031 43.8125 68.089844 43.699219 67.816406 C 43.582031 67.542969 43.527344 67.261719 43.527344 66.964844 Z M 43.527344 66.964844 " fill-opacity="1" fill-rule="nonzero"/><path fill="#004aad" d="M 24.304688 154.042969 L 27.621094 149.679688 L 25.527344 148.492188 L 23.394531 153.378906 L 23.324219 153.378906 L 21.160156 148.523438 L 19.027344 149.746094 L 22.3125 154.007812 L 22.3125 154.078125 L 17.175781 153.414062 L 17.175781 155.789062 L 22.347656 155.128906 L 22.347656 155.195312 L 19.027344 159.457031 L 21.019531 160.714844 L 23.289062 155.789062 L 23.359375 155.789062 L 25.457031 160.679688 L 27.65625 159.421875 L 24.304688 155.230469 L 24.304688 155.160156 L 29.574219 155.789062 L 29.574219 153.414062 L 24.304688 154.113281 Z M 8.121094 27.128906 L 6.210938 29.582031 L 7.359375 30.304688 L 8.667969 27.46875 L 8.707031 27.46875 L 9.914062 30.285156 L 11.179688 29.558594 L 9.25 27.148438 L 9.25 27.105469 L 12.285156 27.46875 L 12.285156 26.101562 L 9.25 26.503906 L 9.25 26.464844 L 11.160156 23.949219 L 9.953125 23.265625 L 8.726562 26.082031 L 8.683594 26.082031 L 7.441406 23.285156 L 6.210938 23.988281 L 8.101562 26.445312 L 8.101562 26.484375 L 5.144531 26.101562 L 5.144531 27.46875 L 8.121094 27.085938 Z M 369.984375 42.007812 L 369.984375 39.679688 L 364.8125 40.363281 L 364.8125 40.292969 L 368.070312 36.011719 L 366.011719 34.847656 L 363.925781 39.644531 L 363.851562 39.644531 L 361.730469 34.882812 L 359.636719 36.082031 L 362.859375 40.261719 L 362.859375 40.332031 L 357.824219 39.679688 L 357.824219 42.007812 L 362.894531 41.355469 L 362.894531 41.425781 L 359.636719 45.605469 L 361.589844 46.839844 L 363.820312 42.007812 L 363.886719 42.007812 L 365.941406 46.804688 L 368.101562 45.570312 L 364.8125 41.460938 L 364.8125 41.390625 Z M 126.582031 9.683594 L 129.386719 5.992188 L 127.617188 4.984375 L 125.816406 9.121094 L 125.753906 9.121094 L 123.921875 5.011719 L 122.117188 6.050781 L 124.898438 9.652344 L 124.898438 9.714844 L 120.550781 9.152344 L 120.550781 11.160156 L 124.925781 10.601562 L 124.925781 10.660156 L 122.117188 14.261719 L 123.804688 15.328125 L 125.726562 11.160156 L 125.785156 11.160156 L 127.554688 15.296875 L 129.417969 14.234375 L 126.582031 10.6875 L 126.582031 10.628906 L 131.042969 11.160156 L 131.042969 9.152344 L 126.582031 9.742188 Z M 126.582031 9.683594 " fill-opacity="1" fill-rule="nonzero"/></svg>